<?xml version="1.0" standalone="no"?>
<!DOCTYPE svg PUBLIC "-//W3C//DTD SVG 20010904//EN"
 "http://www.w3.org/TR/2001/REC-SVG-20010904/DTD/svg10.dtd">
<svg version="1.0" xmlns="http://www.w3.org/2000/svg"
 width="512.000000pt" height="512.000000pt" viewBox="0 0 512.000000 512.000000"
 preserveAspectRatio="xMidYMid meet">
<metadata>
Created by potrace 1.11, written by Peter Selinger 2001-2013
</metadata>
<g transform="translate(0.000000,512.000000) scale(0.100000,-0.100000)"
fill="#000000" stroke="none">
<path d="M1774 4815 c3 -66 8 -185 11 -265 3 -80 8 -188 10 -240 5 -98 10
-234 20 -475 3 -77 8 -185 10 -240 3 -55 7 -156 10 -224 3 -69 6 -125 8 -126
3 -3 299 108 314 118 8 5 10 31 8 80 -2 39 -7 146 -10 237 -3 91 -8 180 -11
198 -2 19 0 32 5 30 5 -1 63 -73 130 -158 67 -85 127 -162 134 -170 7 -8 25
-32 41 -52 16 -21 34 -38 41 -38 12 0 305 108 314 116 2 2 -12 23 -30 47 -110
144 -164 213 -169 217 -3 3 -46 57 -95 120 -49 63 -92 117 -95 120 -4 3 -53
66 -111 140 -57 74 -112 144 -121 155 -9 11 -103 130 -208 265 -106 135 -196
250 -202 255 -6 6 -7 -35 -4 -110z"/>
<path d="M4535 4114 c-33 -13 -271 -103 -530 -200 -258 -97 -578 -216 -710
-266 -132 -49 -245 -93 -252 -97 -8 -4 25 -53 95 -143 l108 -136 234 88 c129
49 245 92 258 95 18 4 4 -22 -76 -142 -54 -82 -122 -185 -151 -230 l-52 -82
107 -136 c59 -75 110 -132 114 -128 5 4 77 114 162 243 85 129 215 327 290
440 398 604 469 713 466 715 -2 1 -30 -9 -63 -21z"/>
<path d="M1495 2974 c-110 -42 -272 -103 -360 -136 -88 -33 -187 -70 -220 -83
-33 -12 -105 -39 -160 -60 -55 -20 -135 -49 -178 -66 -42 -16 -113 -42 -157
-59 -44 -16 -115 -44 -158 -60 -42 -17 -82 -30 -89 -30 -6 0 -14 -4 -18 -9 -3
-5 21 -17 52 -25 32 -9 87 -25 123 -35 81 -23 250 -71 270 -76 20 -5 435 -121
480 -135 19 -5 100 -28 180 -51 80 -22 170 -47 200 -56 30 -9 60 -17 66 -19
10 -2 166 -45 217 -60 16 -5 17 2 13 98 -2 57 -5 135 -5 175 l-1 72 -47 14
c-27 8 -144 40 -260 73 -117 32 -213 62 -213 65 0 3 113 48 251 99 l251 94 -6
130 c-2 72 -5 150 -5 174 -1 27 -5 42 -13 42 -7 -1 -103 -35 -213 -76z"/>
<path d="M3593 2360 c-51 -77 -93 -145 -93 -151 0 -10 51 -77 246 -322 45 -56
77 -103 73 -105 -5 -2 -39 6 -76 17 -78 23 -254 73 -362 102 -41 11 -77 16
-81 12 -4 -4 -48 -70 -98 -145 l-89 -137 31 -10 c51 -16 178 -52 195 -56 15
-3 597 -167 1124 -316 137 -39 251 -69 253 -66 3 3 -321 423 -399 517 -7 8
-143 182 -303 385 -160 204 -300 380 -310 392 l-19 23 -92 -140z"/>
<path d="M1904 1703 c4 -70 8 -184 11 -253 3 -69 7 -172 10 -230 3 -58 7 -168
10 -245 3 -77 7 -185 10 -240 3 -55 7 -163 10 -240 7 -192 15 -339 19 -343 2
-1 68 95 147 215 188 287 567 862 684 1038 58 88 88 142 81 146 -14 8 -303 89
-316 89 -6 0 -64 -82 -130 -182 -65 -101 -124 -190 -130 -198 -6 -8 -19 -28
-30 -45 -12 -18 -20 -24 -21 -15 -2 28 -6 133 -13 305 -4 94 -8 183 -10 199
-3 28 -20 46 -43 46 -9 0 -196 52 -276 76 -17 5 -18 -2 -13 -123z"/>
</g>
</svg>
